HIERARCHY
ROOT Hips
{
	OFFSET 0.000000 8.830580 0.000000
	CHANNELS 6 Xposition Yposition Zposition Zrotation Yrotation Xrotation 
	JOINT Spine
	{
		OFFSET 0.000000 0.010000 0.000000
		CHANNELS 3 Zrotation Yrotation Xrotation
		JOINT Spine1
		{
			OFFSET 0.000000 2.459130 0.000000
			CHANNELS 3 Zrotation Yrotation Xrotation
			JOINT Neck
			{
				OFFSET 0.000000 2.484630 0.000000
				CHANNELS 3 Zrotation Yrotation Xrotation
				JOINT Head_virtual
				{
					OFFSET 0.000000 0.000000 0.000000
					CHANNELS 3 Zrotation Yrotation Xrotation
					JOINT Head
					{
						OFFSET 0.000000 0.927525 0.000000
						CHANNELS 3 Zrotation Yrotation Xrotation
						End Site
						{
							OFFSET 0.000000 0.000000 0.000000
						}
					}
				}
				JOINT LeftUpArm_virtual
				{
					OFFSET 0.000000 0.000000 0.000000
					CHANNELS 3 Zrotation Yrotation Xrotation
					JOINT LeftUpArm
					{
						OFFSET 1.248820 0.000000 0.000000
						CHANNELS 3 Zrotation Yrotation Xrotation
						JOINT LeftForeArm
						{
							OFFSET 2.597580 0.000000 0.000000
							CHANNELS 3 Zrotation Yrotation Xrotation
							JOINT LeftHand
							{
								OFFSET 2.455420 0.000000 0.000000
								CHANNELS 3 Zrotation Yrotation Xrotation
								End Site
								{
									OFFSET 0.000000 0.000000 0.000000
								}
							}
						}
					}
				}
				JOINT RightUpArm_virtual
				{
					OFFSET -0.000000 -0.000000 -0.000000
					CHANNELS 3 Zrotation Yrotation Xrotation
					JOINT RightUpArm
					{
						OFFSET -1.248820 -0.000000 -0.000000
						CHANNELS 3 Zrotation Yrotation Xrotation
						JOINT RightForeArm
						{
							OFFSET -2.597580 -0.000000 -0.000000
							CHANNELS 3 Zrotation Yrotation Xrotation
							JOINT RightHand
							{
								OFFSET -2.455420 -0.000000 -0.000000
								CHANNELS 3 Zrotation Yrotation Xrotation
								End Site
								{
									OFFSET 0.000000 0.000000 0.000000
								}
							}
						}
					}
				}
			}
		}
	}
	JOINT LeftUpLeg
	{
		OFFSET 1.271939 0.000000 0.000000
		CHANNELS 3 Zrotation Yrotation Xrotation
		JOINT LeftLowLeg
		{
			OFFSET 0.000000 -4.342910 0.000000
			CHANNELS 3 Zrotation Yrotation Xrotation
			JOINT LeftFoot
			{
				OFFSET 0.000000 -4.487670 0.000000
				CHANNELS 3 Zrotation Yrotation Xrotation
				JOINT LeftToeBase
				{
					OFFSET 0.000000 0.000000 1.515070
					CHANNELS 3 Zrotation Yrotation Xrotation
					End Site
					{
						OFFSET 0.000000 0.000000 0.000000
					}
				}
			}
		}
	}
	JOINT RightUpLeg
	{
		OFFSET -1.271939 0.000000 0.000000
		CHANNELS 3 Zrotation Yrotation Xrotation
		JOINT RightLowLeg
		{
			OFFSET 0.000000 -4.342910 0.000000
			CHANNELS 3 Zrotation Yrotation Xrotation
			JOINT RightFoot
			{
				OFFSET 0.000000 -4.487670 0.000000
				CHANNELS 3 Zrotation Yrotation Xrotation
				JOINT RightToeBase
				{
					OFFSET 0.000000 0.000000 1.515070
					CHANNELS 3 Zrotation Yrotation Xrotation
					End Site
					{
						OFFSET 0.000000 0.000000 0.000000
					}
				}
			}
		}
	}
}
MOTION
Frames: 5
Frame Time: 0.041667
-17.667923 9.148927 42.888366 -175.416473 4.679913 -172.929892 2.944072 1.492287 -5.517637 3.690753 1.935191 -11.915095 0.000000 0.000000 0.000000 -27.285868 13.342992 12.857170 3.285850 29.010142 -90.845906 -23.191700 9.998160 -9.564610 18.214600 -15.943100 -29.443100 0.000000 -6.542970 0.000000 28.417999 9.798850 28.167299 20.373600 -8.212440 -4.033510 -10.907300 0.883628 -57.764702 0.000000 16.573200 0.000000 -28.222900 -15.838500 49.197498 3.961170 1.750150 -5.099295 0.000000 0.000000 7.898320 -16.916046 7.251719 0.035282 0.000000 0.000000 -30.060200 5.477240 0.772860 -4.153259 0.000000 0.000000 8.714820 11.682199 -19.294308 4.007843 0.000000 0.000000 -31.853001 
-17.666787 9.148959 42.891165 -175.403800 4.656919 -172.987018 2.927054 1.487973 -5.507133 3.730234 1.928480 -11.828996 0.000000 0.000000 0.000000 -27.313690 13.422670 12.887193 3.285038 29.052100 -90.829243 -23.197000 9.934030 -9.607530 18.160700 -15.930100 -29.473101 0.000000 -6.491690 0.000000 28.303200 9.706890 28.323999 20.388201 -8.191260 -4.045150 -10.906500 0.884299 -57.655701 0.000000 16.568800 0.000000 -28.089001 -15.867800 48.968800 3.991562 1.624546 -5.028996 0.000000 0.000000 7.837690 -16.939870 7.332059 0.025307 0.000000 0.000000 -30.015600 5.503793 0.791677 -4.110823 0.000000 0.000000 8.715230 11.673675 -19.345340 4.011004 0.000000 0.000000 -31.842600 
-17.665832 9.148712 42.894255 -175.391516 4.652293 -173.020417 2.911926 1.488575 -5.509415 3.772366 1.927339 -11.765651 0.000000 0.000000 0.000000 -27.330494 13.461875 12.925462 3.253039 29.077709 -90.821544 -23.193800 9.893420 -9.546320 18.111000 -15.918300 -29.535200 0.000000 -6.471530 0.000000 28.325399 9.798140 28.383101 20.383101 -8.136320 -3.941860 -10.903000 0.862302 -57.646900 0.000000 16.528500 0.000000 -28.151100 -15.874500 48.974602 4.022329 1.458403 -4.963382 0.000000 0.000000 7.742790 -16.989658 7.447150 0.009580 0.000000 0.000000 -30.015100 5.522483 0.803359 -4.095273 0.000000 0.000000 8.716920 11.692918 -19.347763 4.009792 0.000000 0.000000 -31.843100 
-17.664032 9.148617 42.901850 -175.377004 4.624411 -173.048869 2.881791 1.495118 -5.527808 3.807352 1.933181 -11.669535 0.000000 0.000000 0.000000 -27.335696 13.534667 12.986535 3.198922 29.143936 -90.801962 -23.185400 9.810830 -9.467020 18.041800 -15.961700 -29.555500 0.000000 -6.422870 0.000000 28.367300 10.003900 28.378099 20.392500 -8.097080 -3.881090 -10.866900 0.840137 -57.468399 0.000000 16.492399 0.000000 -28.104500 -15.860000 48.920300 4.056013 1.523804 -4.947644 0.000000 0.000000 7.665350 -16.961541 7.363493 0.082380 0.000000 0.000000 -30.074200 5.551124 0.830059 -4.104752 0.000000 0.000000 8.705240 11.671453 -19.387621 4.035376 0.000000 0.000000 -31.898001 
-17.663746 9.148576 42.903637 -175.371958 4.644330 -173.057350 2.869417 1.517205 -5.562476 3.829746 1.953884 -11.605442 0.000000 0.000000 0.000000 -27.353376 13.557750 13.003308 3.215029 29.145267 -90.776505 -23.195000 9.764900 -9.468870 18.009501 -15.971000 -29.525299 0.000000 -6.427540 0.000000 28.359100 10.069600 28.293800 20.381201 -8.089230 -3.848630 -10.853800 0.808380 -57.299198 0.000000 16.493200 0.000000 -28.117300 -15.902500 48.851601 4.063625 1.523360 -4.915021 0.000000 0.000000 7.606690 -16.957789 7.379909 0.097406 0.000000 0.000000 -30.068300 5.555482 0.856496 -4.106379 0.000000 0.000000 8.703920 11.655139 -19.392347 4.047370 0.000000 0.000000 -31.919901 
